<svg width="52" height="52" viewBox="0 0 52 52" fill="none" xmlns="http://www.w3.org/2000/svg">
<rect x="1.5" y="1.5" width="49" height="49" rx="24.5" stroke="#0000B0" stroke-width="3"/>
<path d="M11.59 19.48C12.31 19.48 13.01 19.42 13.69 19.3C14.37 19.18 14.98 18.98 15.52 18.7C16.08 18.42 16.55 18.06 16.93 17.62C17.33 17.18 17.59 16.64 17.71 16H20.5V37H16.75V22.18H11.59V19.48ZM28.5599 16H39.4199V19.06H31.1099L30.0299 24.4L30.0899 24.46C30.5499 23.94 31.1299 23.55 31.8299 23.29C32.5499 23.01 33.2599 22.87 33.9599 22.87C34.9999 22.87 35.9299 23.05 36.7499 23.41C37.5699 23.75 38.2599 24.24 38.8199 24.88C39.3799 25.5 39.7999 26.24 40.0799 27.1C40.3799 27.96 40.5299 28.89 40.5299 29.89C40.5299 30.73 40.3899 31.6 40.1099 32.5C39.8499 33.38 39.4199 34.19 38.8199 34.93C38.2399 35.65 37.4899 36.25 36.5699 36.73C35.6499 37.19 34.5499 37.42 33.2699 37.42C32.2499 37.42 31.2999 37.28 30.4199 37C29.5599 36.74 28.7999 36.34 28.1399 35.8C27.4799 35.26 26.9499 34.6 26.5499 33.82C26.1699 33.02 25.9599 32.09 25.9199 31.03H29.3399C29.4399 32.17 29.8299 33.05 30.5099 33.67C31.1899 34.27 32.0899 34.57 33.2099 34.57C33.9299 34.57 34.5399 34.45 35.0399 34.21C35.5399 33.97 35.9399 33.64 36.2399 33.22C36.5599 32.8 36.7799 32.31 36.8999 31.75C37.0399 31.19 37.1099 30.59 37.1099 29.95C37.1099 29.37 37.0299 28.82 36.8699 28.3C36.7099 27.76 36.4699 27.29 36.1499 26.89C35.8299 26.49 35.4099 26.17 34.8899 25.93C34.3899 25.69 33.7999 25.57 33.1199 25.57C32.3999 25.57 31.7199 25.71 31.0799 25.99C30.4599 26.25 30.0099 26.75 29.7299 27.49H26.3099L28.5599 16Z" fill="#0000B0"/>
</svg>
