<svg width="52" height="52" viewBox="0 0 52 52" fill="none" xmlns="http://www.w3.org/2000/svg">
<rect x="1.5" y="1.5" width="49" height="49" rx="24.5" stroke="#0000B0" stroke-width="3"/>
<path d="M11.59 19.48C12.31 19.48 13.01 19.42 13.69 19.3C14.37 19.18 14.98 18.98 15.52 18.7C16.08 18.42 16.55 18.06 16.93 17.62C17.33 17.18 17.59 16.64 17.71 16H20.5V37H16.75V22.18H11.59V19.48ZM33.2099 15.58C34.7099 15.58 35.9299 15.93 36.8699 16.63C37.8299 17.31 38.5699 18.19 39.0899 19.27C39.6299 20.33 39.9899 21.5 40.1699 22.78C40.3699 24.06 40.4699 25.3 40.4699 26.5C40.4699 27.7 40.3699 28.94 40.1699 30.22C39.9899 31.5 39.6299 32.68 39.0899 33.76C38.5699 34.82 37.8299 35.7 36.8699 36.4C35.9299 37.08 34.7099 37.42 33.2099 37.42C31.7099 37.42 30.4799 37.08 29.5199 36.4C28.5799 35.7 27.8399 34.82 27.2999 33.76C26.7799 32.68 26.4199 31.5 26.2199 30.22C26.0399 28.94 25.9499 27.7 25.9499 26.5C25.9499 25.3 26.0399 24.06 26.2199 22.78C26.4199 21.5 26.7799 20.33 27.2999 19.27C27.8399 18.19 28.5799 17.31 29.5199 16.63C30.4799 15.93 31.7099 15.58 33.2099 15.58ZM33.2099 34.57C33.9499 34.57 34.5699 34.36 35.0699 33.94C35.5699 33.5 35.9599 32.92 36.2399 32.2C36.5399 31.46 36.7499 30.6 36.8699 29.62C36.9899 28.64 37.0499 27.6 37.0499 26.5C37.0499 25.4 36.9899 24.37 36.8699 23.41C36.7499 22.43 36.5399 21.57 36.2399 20.83C35.9599 20.09 35.5699 19.51 35.0699 19.09C34.5699 18.65 33.9499 18.43 33.2099 18.43C32.4499 18.43 31.8199 18.65 31.3199 19.09C30.8399 19.51 30.4499 20.09 30.1499 20.83C29.8699 21.57 29.6699 22.43 29.5499 23.41C29.4299 24.37 29.3699 25.4 29.3699 26.5C29.3699 27.6 29.4299 28.64 29.5499 29.62C29.6699 30.6 29.8699 31.46 30.1499 32.2C30.4499 32.92 30.8399 33.5 31.3199 33.94C31.8199 34.36 32.4499 34.57 33.2099 34.57Z" fill="#0000B0"/>
</svg>
