<svg width="130" height="20" viewBox="0 0 130 20" fill="none" xmlns="http://www.w3.org/2000/svg">
<path d="M9.84075 13.6927L0 5.22815V0.0830078L9.84075 8.46461L19.6815 0.0830078V19.9997H15.6244V8.63058L9.84075 13.6927ZM4.05715 11.4521V19.9997H0V8.04967L4.05715 11.4521Z" fill="#EC1026"/>
<path d="M29.352 19.9997H24.8633L32.028 6.55591L34.2724 10.8712L29.352 19.9997ZM39.7107 16.6802H33.4955L35.5673 12.7799H37.7253L33.1502 4.31528L35.4809 0L46.0986 19.9167H41.6098L39.7107 16.6802Z" fill="#EC1026"/>
<path d="M54.9048 0.498047V19.9998H50.8477V0.498047H54.9048ZM57.0629 19.9998V16.0994H62.6738V19.9998H57.0629Z" fill="#EC1026"/>
<path d="M71.7329 0.498047V19.9998H67.6758V0.498047H71.7329ZM75.8764 19.9998H73.9773V16.0994H75.8764C77.6029 16.0994 78.984 15.5185 80.1925 14.4397C81.3147 13.2779 81.919 11.9501 81.919 10.3734C81.919 8.71368 81.3147 7.30291 80.1925 6.1411C78.984 4.9793 77.6029 4.3984 75.8764 4.3984H73.9773V0.498047H75.8764C78.6387 0.498047 81.0557 1.41089 82.9548 3.31958C84.9403 5.22826 85.8898 7.55187 85.8898 10.2904C85.8898 12.946 84.9403 15.1866 82.9548 17.0953C80.9694 19.004 78.6387 19.9998 75.8764 19.9998Z" fill="#EC1026"/>
<path d="M95.5611 0.498047V19.9998H91.5039V0.498047H95.5611ZM97.7191 0.498047H106.092V4.3984H97.7191V0.498047ZM97.7191 8.29874H106.092V12.1991H97.7191V8.29874ZM97.7191 16.0994H106.092V19.9998H97.7191V16.0994Z" fill="#EC1026"/>
<path d="M125.167 19.9998L111.355 0.498047H116.276L130.001 19.9998H125.167ZM119.47 15.5185L116.276 19.9168H111.355L116.966 11.9501L119.47 15.5185ZM124.476 8.46472L121.973 4.9793L125.081 0.498047H130.001L124.476 8.46472Z" fill="#EC1026"/>
</svg>
