<svg width="25" height="26" viewBox="0 0 25 26" fill="none" xmlns="http://www.w3.org/2000/svg">
<path d="M21.6397 16.1546L17.0264 14.0872C16.8174 13.9976 16.5893 13.9616 16.3628 13.9824C16.1364 14.0032 15.9187 14.0802 15.7295 14.2063C15.7103 14.2186 15.692 14.2324 15.6748 14.2473L13.2637 16.2981C13.2387 16.3118 13.2108 16.3194 13.1823 16.3204C13.1539 16.3214 13.1255 16.3158 13.0996 16.304C11.5498 15.5559 9.94435 13.9602 9.19337 12.4319C9.18086 12.4064 9.17436 12.3783 9.17436 12.3499C9.17436 12.3214 9.18086 12.2934 9.19337 12.2678L11.251 9.82644C11.2658 9.80838 11.2794 9.78946 11.292 9.7698C11.4164 9.57986 11.4915 9.36194 11.5106 9.13569C11.5297 8.90944 11.4922 8.682 11.4014 8.4739L9.34864 3.86843C9.23207 3.59657 9.03047 3.36984 8.77409 3.22229C8.51772 3.07473 8.2204 3.0143 7.92677 3.05007C6.65062 3.21784 5.47922 3.84454 4.63148 4.81306C3.78373 5.78158 3.31765 7.02564 3.32032 8.31277C3.32032 15.9593 9.54103 22.18 17.1875 22.18C18.4746 22.1824 19.7185 21.7163 20.687 20.8686C21.6555 20.0209 22.2822 18.8496 22.4502 17.5735C22.4859 17.2813 22.4263 16.9853 22.2803 16.7296C22.1342 16.474 21.9095 16.2723 21.6397 16.1546ZM17.1875 21.0081C10.1875 21.0081 4.4922 15.3128 4.4922 8.31277C4.48893 7.31075 4.8506 6.34181 5.50963 5.587C6.16865 4.83218 7.07995 4.34313 8.07325 4.21121H8.09571C8.13507 4.21194 8.17328 4.22455 8.20535 4.24738C8.23741 4.27021 8.26183 4.30219 8.2754 4.33914L10.3359 8.93972C10.3477 8.9653 10.3538 8.99312 10.3538 9.02127C10.3538 9.04941 10.3477 9.07723 10.3359 9.10281L8.27443 11.5501C8.25905 11.5675 8.24501 11.5862 8.23243 11.6057C8.10343 11.8027 8.02747 12.0296 8.0119 12.2645C7.99633 12.4994 8.04169 12.7343 8.14357 12.9466C9.00978 14.72 10.7969 16.4934 12.5899 17.3596C12.8033 17.461 13.0394 17.5052 13.2751 17.4881C13.5108 17.471 13.738 17.3931 13.9346 17.262C13.9531 17.2493 13.9717 17.2356 13.9893 17.221L16.3994 15.1702C16.4232 15.1574 16.4495 15.1499 16.4765 15.1482C16.5035 15.1465 16.5305 15.1507 16.5557 15.1604L21.1699 17.2278C21.2076 17.2439 21.2393 17.2714 21.2605 17.3064C21.2817 17.3415 21.2914 17.3823 21.2881 17.4231C21.1569 18.4169 20.6683 19.3289 19.9136 19.9886C19.159 20.6484 18.1899 21.0108 17.1875 21.0081Z" fill="#222220"/>
</svg>
